# xmcd
#
# Track frame offsets:
#	150
#	18197
#	25788
#	32528
#	42866
#	49489
#	63972
#	76614
#	90738
#	104917
#	120057
#	130265
#
# Disc length: 1849 seconds
# Revision: 0
# Processed by: cddbd v1.5.2PL0 Copyright (c) Steve Scherf et al.
# Submitted via: dBpowerAMP V12.0
#
DISCID=8b07370c
DTITLE=Various Artist - The Fox and the Hound 2 (Song from the OMPS)
DYEAR=2006
DGENRE=Soundtrack
TTITLE0=One Flew South - Friends for Life
TTITLE1=Score - Nashville 7
TTITLE2=Chip Davis - We're in Harmony
TTITLE3=Gracin, Josh - Hound Dude
TTITLE4=Score - Depressed Dixie
TTITLE5=McEntire, Reba - Good Doggie, No Bone!
TTITLE6=Score - Sticky Hound Puppy
TTITLE7=Yearwood, Trisha  - Blue Beyond
TTITLE8=Little Big Town - We Go Together
TTITLE9=Grabeel, Lucas - You Know I Will
TTITLE10=Score - Sad Puppy Blues
TTITLE11=Finale - We're In Harmony
EXTD=
EXTT0=
EXTT1=
EXTT2=
EXTT3=
EXTT4=
EXTT5=
EXTT6=
EXTT7=
EXTT8=
EXTT9=
EXTT10=
EXTT11=
PLAYORDER=
